static_grf.mot
version=1
nRows=12
nColumns 19
inDegrees=yes
endheader
time	1_ground_force_vx	1_ground_force_vy	1_ground_force_vz	1_ground_force_px	1_ground_force_py	1_ground_force_pz	1_ground_torque_x	1_ground_torque_y	1_ground_torque_z	2_ground_force_vx	2_ground_force_vy	2_ground_force_vz	2_ground_force_px	2_ground_force_py	2_ground_force_pz	2_ground_torque_x	2_ground_torque_y	2_ground_torque_z
            0.005000	           -2.077150	          403.569077	          -29.722487	           -0.291658	            0.006085	           -0.375661	           -0.014767	            2.869113	           -0.211307	           -5.372442	          438.761384	           15.692745	           -0.300581	            0.005459	           -0.714747	           -0.018127	            1.480403	            0.052948
            0.005500	           -2.077267	          404.830771	          -29.671221	           -0.291252	            0.006082	           -0.374955	           -0.014508	            2.827376	           -0.207227	           -5.417983	          438.393101	           15.644523	           -0.300554	            0.005459	           -0.714520	           -0.018770	            1.518771	            0.054199
            0.006000	           -1.893763	          404.109743	          -29.674768	           -0.291515	            0.006083	           -0.375259	           -0.013432	            2.866336	           -0.210482	           -5.092733	          439.131182	           15.553155	           -0.300476	            0.005460	           -0.714758	           -0.016690	            1.439127	            0.050971
            0.006500	           -1.710361	          405.190980	          -29.578873	           -0.291255	            0.006082	           -0.374925	           -0.011982	            2.838490	           -0.207209	           -5.328291	          439.498451	           15.601497	           -0.300549	            0.005460	           -0.714774	           -0.017618	            1.453234	            0.051587
            0.007000	           -1.893356	          403.748622	          -29.538746	           -0.291625	            0.006084	           -0.375444	           -0.013202	            2.815222	           -0.205965	           -5.233262	          439.130508	           15.600143	           -0.300603	            0.005459	           -0.714673	           -0.016731	            1.403909	            0.049874
            0.007500	           -1.848183	          405.551878	          -29.668698	           -0.291534	            0.006082	           -0.374876	           -0.013094	            2.873153	           -0.210189	           -5.188406	          439.683160	           15.602094	           -0.300520	            0.005460	           -0.714823	           -0.017066	            1.446217	            0.051319
            0.008000	           -1.802062	          404.650331	          -29.626820	           -0.291385	            0.006083	           -0.375185	           -0.012702	            2.852265	           -0.208831	           -5.231913	          438.762059	           15.645757	           -0.300836	            0.005458	           -0.714617	           -0.017342	            1.454331	            0.051860
            0.008500	           -2.031178	          404.109520	          -29.628570	           -0.291679	            0.006083	           -0.375209	           -0.014151	            2.815384	           -0.206419	           -5.278742	          438.761722	           15.692705	           -0.300797	            0.005459	           -0.714746	           -0.018095	            1.504014	            0.053792
            0.009000	           -2.030738	          403.568103	          -29.493322	           -0.291717	            0.006085	           -0.375542	           -0.014083	            2.798620	           -0.204527	           -5.422615	          439.681979	           15.696050	           -0.300395	            0.005460	           -0.714697	           -0.018361	            1.488782	            0.053148
            0.009500	           -1.939378	          404.109341	          -29.582942	           -0.291582	            0.006084	           -0.375389	           -0.013402	            2.792623	           -0.204435	           -5.237230	          440.235245	           15.651014	           -0.300434	            0.005461	           -0.715057	           -0.017125	            1.439480	            0.051176
            0.010000	           -1.710798	          404.470900	          -29.811244	           -0.291584	            0.006084	           -0.375488	           -0.012063	            2.852013	           -0.210206	           -5.327606	          439.314143	           15.647768	           -0.300577	            0.005460	           -0.714852	           -0.017462	            1.439890	            0.051287
            0.010500	           -1.848294	          404.290577	          -29.811676	           -0.291532	            0.006084	           -0.375498	           -0.013040	            2.852234	           -0.210319	           -5.142201	          439.867302	           15.649660	           -0.300575	            0.005460	           -0.714829	           -0.016574	            1.417744	            0.050441
